<svg viewBox="0 0 1024 640" xmlns="http://www.w3.org/2000/svg">
<defs><linearGradient x1="0" y1="246" x2="0" y2="640" gradientUnits="userSpaceOnUse" id="meadow-scene-far-g0"><stop offset="0" stop-color="{{green_mid}}"/><stop offset="1" stop-color="{{horizon}}"/></linearGradient><linearGradient x1="0" y1="300" x2="0" y2="640" gradientUnits="userSpaceOnUse" id="meadow-scene-far-g1"><stop offset="0" stop-color="{{green_mid}}"/><stop offset="1" stop-color="{{green_deep}}"/></linearGradient><linearGradient x1="0" y1="470" x2="0" y2="640" gradientUnits="userSpaceOnUse" id="meadow-scene-far-g2"><stop offset="0" stop-color="{{horizon}}" stop-opacity="0"/><stop offset="1" stop-color="{{horizon}}" stop-opacity="0.55"/></linearGradient></defs>
<path d="M-16 343.2C-16 339.93 -33.6 333.05 -16 323.57C1.6 314.1 54.4 284.98 89.6 286.34C124.8 287.7 160 331.2 195.2 331.74C230.4 332.29 265.6 291.23 300.8 289.61C336 287.98 371.2 323.65 406.4 321.98C441.6 320.3 476.8 277.63 512 279.55C547.2 281.48 582.4 330.11 617.6 333.52C652.8 336.93 688 299.76 723.2 300C758.4 300.25 793.6 338.04 828.8 334.99C864 331.94 899.2 282.31 934.4 281.72C969.6 281.14 1022.4 321.23 1040 331.48C1057.6 341.73 1040 341.25 1040 343.2L1040 648L-16 648Z" fill="url(#meadow-scene-far-g0)" opacity="0.5"/>
<path d="M-16 429.6C-16 426.43 -38 421.18 -16 410.58C6 399.97 72 366.09 116 365.97C160 365.86 204 408.98 248 409.88C292 410.78 336 371.81 380 371.37C424 370.93 468 408.07 512 407.22C556 406.38 600 364.5 644 366.3C688 368.1 732 421.97 776 418.04C820 414.12 864 343.17 908 342.75C952 342.33 1018 401.05 1040 415.52C1062 430 1040 427.25 1040 429.6L1040 648L-16 648Z" fill="url(#meadow-scene-far-g1)" opacity="0.62"/>
<path d="M5.03 383.78C4.86 389.78 2.68 397.34 -1.96 401.19C-6.6 405.03 -17.62 408.57 -22.83 406.85C-28.04 405.14 -30.86 396.22 -33.22 390.91C-35.58 385.59 -38.94 379.21 -37.01 374.98C-35.08 370.75 -27.64 367.16 -21.63 365.53C-15.62 363.9 -5.38 362.16 -0.94 365.2C3.5 368.24 5.2 377.78 5.03 383.78Z" fill="{{green_deep}}" opacity="0.32"/>
<path d="M43.56 377.51C43.17 382.99 41.7 389.18 38.56 392.27C35.41 395.37 28.62 397.28 24.68 396.06C20.74 394.85 16.78 389.47 14.89 384.99C13.01 380.51 11.84 374.01 13.38 369.19C14.91 364.37 19.53 357.72 24.11 356.08C28.7 354.44 37.65 355.79 40.89 359.36C44.13 362.93 43.95 372.02 43.56 377.51Z" fill="{{green_deep}}" opacity="0.32"/>
<path d="M77.07 387.85C76.77 394.44 75.73 401.91 72.8 405.91C69.86 409.9 63.71 412.94 59.48 411.81C55.25 410.68 49.72 405.24 47.42 399.15C45.11 393.06 43.6 380.86 45.66 375.29C47.72 369.73 54.94 367.24 59.76 365.76C64.59 364.27 71.74 362.69 74.63 366.37C77.51 370.06 77.38 381.27 77.07 387.85Z" fill="{{green_deep}}" opacity="0.32"/>
<path d="M141.95 390.2C142.33 396.7 142.37 406.43 136.47 410.74C130.57 415.06 113.73 418.23 106.54 416.08C99.35 413.92 96.2 403.61 93.32 397.79C90.43 391.97 86.67 385.54 89.24 381.15C91.81 376.76 101.23 373.03 108.73 371.47C116.23 369.9 128.69 368.63 134.23 371.75C139.76 374.87 141.58 383.7 141.95 390.2Z" fill="{{green_deep}}" opacity="0.32"/>
<path d="M182.69 378.23C183.06 386.23 179.38 398.96 173.1 403.53C166.83 408.1 153.23 407.8 145.05 405.68C136.86 403.55 127.67 397.54 124 390.8C120.34 384.06 119.57 371.96 123.06 365.24C126.56 358.52 137 352.1 144.97 350.48C152.95 348.86 164.62 350.9 170.91 355.53C177.19 360.15 182.33 370.23 182.69 378.23Z" fill="{{green_deep}}" opacity="0.32"/>
<path d="M212.81 388.66C212.79 393.35 210.36 400.25 207.28 402.65C204.19 405.06 198.73 403.94 194.29 403.09C189.85 402.24 182.36 401.16 180.63 397.56C178.91 393.97 181.84 386.25 183.95 381.54C186.06 376.83 189.36 370.45 193.27 369.28C197.18 368.11 204.13 371.29 207.39 374.52C210.64 377.75 212.83 383.98 212.81 388.66Z" fill="{{green_deep}}" opacity="0.32"/>
<path d="M252.96 366.06C252.66 373.31 249.07 382.04 244.7 386.39C240.33 390.74 232.34 393.5 226.74 392.14C221.15 390.78 213.09 384.23 211.11 378.22C209.12 372.22 212.05 361.57 214.83 356.11C217.6 350.65 222.47 347.65 227.76 345.45C233.04 343.26 242.32 339.48 246.52 342.91C250.72 346.35 253.26 358.81 252.96 366.06Z" fill="{{green_deep}}" opacity="0.32"/>
<path d="M296.76 387.29C296.69 394.07 294.15 401.65 290.98 407.13C287.81 412.6 281.27 421.72 277.74 420.14C274.2 418.56 271.73 405.39 269.78 397.65C267.82 389.92 264.56 380.06 266 373.73C267.44 367.4 274.18 360.9 278.42 359.68C282.66 358.47 288.37 361.86 291.43 366.46C294.49 371.06 296.84 380.51 296.76 387.29Z" fill="{{green_deep}}" opacity="0.32"/>
<path d="M334.82 371.34C334.43 376.18 331.27 382.06 327.08 384.68C322.88 387.3 314.95 388.04 309.64 387.05C304.34 386.05 297.85 382.63 295.27 378.71C292.7 374.79 291.94 367.89 294.19 363.54C296.45 359.18 302.92 353.9 308.79 352.58C314.66 351.26 325.07 352.49 329.41 355.61C333.74 358.74 335.2 366.49 334.82 371.34Z" fill="{{green_deep}}" opacity="0.32"/>
<path d="M390.07 365.99C390.02 371.93 386.27 379.75 381.29 383.64C376.32 387.54 367.08 390.39 360.22 389.36C353.36 388.33 342.08 382.67 340.12 377.48C338.16 372.28 345 363.58 348.46 358.2C351.91 352.81 355.33 346.87 360.85 345.17C366.37 343.47 376.7 344.54 381.57 348.01C386.44 351.48 390.12 360.05 390.07 365.99Z" fill="{{green_deep}}" opacity="0.32"/>
<path d="M428.62 363.62C428.65 369.82 425.16 379.02 421.41 382.37C417.66 385.72 410.4 385.4 406.1 383.72C401.79 382.04 398.03 377.51 395.58 372.29C393.14 367.07 389.7 357.34 391.43 352.4C393.16 347.46 400.97 343.87 405.94 342.67C410.91 341.46 417.46 341.65 421.24 345.14C425.02 348.64 428.6 357.42 428.62 363.62Z" fill="{{green_deep}}" opacity="0.32"/>
<path d="M471.15 368.23C471.04 374.17 461.3 381.79 456.38 385.52C451.47 389.25 446.92 391.34 441.64 390.61C436.36 389.88 427.61 387.07 424.71 381.15C421.81 375.22 421.43 360.91 424.25 355.04C427.08 349.16 436.19 346.76 441.65 345.9C447.11 345.05 452.11 346.18 457.03 349.9C461.95 353.62 471.26 362.3 471.15 368.23Z" fill="{{green_deep}}" opacity="0.32"/>
<path d="M500.64 375.46C500.37 380.14 498.19 385.3 495.26 388.29C492.32 391.28 487.01 394.11 483.02 393.4C479.03 392.7 473.16 388.4 471.31 384.04C469.46 379.67 470 371.85 471.92 367.23C473.83 362.62 478.63 357.52 482.79 356.35C486.95 355.19 493.91 357.06 496.88 360.25C499.86 363.43 500.91 370.79 500.64 375.46Z" fill="{{green_deep}}" opacity="0.32"/>
<path d="M544.41 383.91C544.39 388.94 544.5 396.82 541.57 398.94C538.63 401.05 531.45 397.82 526.81 396.6C522.17 395.39 516.11 395.15 513.74 391.65C511.37 388.15 510.47 379.26 512.59 375.62C514.71 371.97 521.64 370.93 526.48 369.79C531.33 368.65 538.67 366.42 541.66 368.77C544.65 371.12 544.43 378.89 544.41 383.91Z" fill="{{green_deep}}" opacity="0.32"/>
<path d="M599.11 377.63C598.77 383.73 597.36 390.32 593.24 394.61C589.12 398.9 580.62 404.2 574.4 403.37C568.17 402.55 558.38 395.66 555.86 389.65C553.35 383.65 556.07 372.9 559.32 367.32C562.56 361.73 569.34 357.68 575.34 356.13C581.33 354.58 591.33 354.42 595.29 358C599.25 361.58 599.45 371.53 599.11 377.63Z" fill="{{green_deep}}" opacity="0.32"/>
<path d="M649.35 382.52C648.95 388.37 642.04 395.66 636.16 398.88C630.29 402.11 620.27 403.29 614.1 401.87C607.93 400.45 602.73 395.29 599.15 390.34C595.58 385.4 590.37 377.48 592.65 372.22C594.93 366.95 605.18 360.17 612.83 358.76C620.48 357.36 632.45 359.84 638.54 363.8C644.63 367.76 649.75 376.67 649.35 382.52Z" fill="{{green_deep}}" opacity="0.32"/>
<path d="M687.46 377.08C687.23 382.18 682.39 388.73 678.18 391.56C673.97 394.39 667.29 395.04 662.19 394.07C657.1 393.1 650.19 390.08 647.6 385.73C645.01 381.38 644.38 372.93 646.65 367.99C648.93 363.05 655.77 357.28 661.25 356.11C666.73 354.94 675.17 357.46 679.54 360.95C683.91 364.45 687.69 371.98 687.46 377.08Z" fill="{{green_deep}}" opacity="0.32"/>
<path d="M729.33 387.75C729.17 393.26 724.23 400.37 719.71 403.66C715.19 406.95 707.71 408.57 702.23 407.49C696.76 406.42 689.16 401.96 686.85 397.21C684.54 392.46 685.76 383.73 688.36 379.01C690.95 374.29 697.04 370.27 702.43 368.88C707.82 367.48 716.21 367.48 720.7 370.63C725.18 373.77 729.5 382.25 729.33 387.75Z" fill="{{green_deep}}" opacity="0.32"/>
<path d="M762.91 373.49C762.86 378.85 761.37 386.66 756.8 389.45C752.24 392.23 741.16 391.76 735.51 390.19C729.86 388.62 725.89 384.24 722.92 380.03C719.95 375.83 715.73 369.39 717.67 364.98C719.61 360.58 728.01 354.9 734.57 353.61C741.14 352.32 752.36 353.95 757.08 357.26C761.8 360.58 762.95 368.13 762.91 373.49Z" fill="{{green_deep}}" opacity="0.32"/>
<path d="M812.27 368.99C812.44 373.99 812.14 381.45 807.93 384.51C803.72 387.57 792.96 388.66 787.01 387.35C781.05 386.05 774.25 380.84 772.2 376.65C770.15 372.47 772.32 366.95 774.69 362.27C777.06 357.59 781.05 349.89 786.42 348.59C791.79 347.3 802.6 351.08 806.9 354.48C811.21 357.88 812.1 363.98 812.27 368.99Z" fill="{{green_deep}}" opacity="0.32"/>
<path d="M845 371.69C844.56 377.5 845.2 384.92 840.55 387.89C835.91 390.86 824.46 390.67 817.13 389.49C809.79 388.32 799.13 385.03 796.54 380.83C793.96 376.64 798.06 368.44 801.61 364.32C805.16 360.19 810.89 357.98 817.83 356.1C824.76 354.23 838.7 350.46 843.23 353.06C847.76 355.66 845.45 365.88 845 371.69Z" fill="{{green_deep}}" opacity="0.32"/>
<path d="M883.17 361.1C883.15 365.66 881.85 371.56 878.31 374.72C874.76 377.88 866.01 381.37 861.92 380.05C857.83 378.73 855.64 371.15 853.78 366.81C851.92 362.48 849.26 357.57 850.76 354.03C852.26 350.49 858.15 346.69 862.77 345.58C867.38 344.46 875.04 344.73 878.44 347.32C881.84 349.9 883.19 356.53 883.17 361.1Z" fill="{{green_deep}}" opacity="0.32"/>
<path d="M943.29 378.24C943.47 383.75 937.9 392.18 932.41 395.3C926.92 398.43 916.55 398.51 910.35 396.99C904.15 395.48 897.29 390.48 895.22 386.2C893.15 381.93 895.4 375.73 897.94 371.33C900.48 366.93 904.87 361.33 910.44 359.81C916.01 358.3 925.89 359.16 931.36 362.24C936.84 365.31 943.12 372.72 943.29 378.24Z" fill="{{green_deep}}" opacity="0.32"/>
<path d="M982.4 365.17C982.8 371.18 982.04 381.06 977.59 384.57C973.14 388.08 961.88 387.94 955.68 386.23C949.49 384.52 943.41 379.52 940.41 374.29C937.41 369.06 935.08 359.68 937.68 354.83C940.27 349.99 949.71 346.29 955.96 345.24C962.22 344.19 970.8 345.23 975.21 348.55C979.61 351.87 982 359.17 982.4 365.17Z" fill="{{green_deep}}" opacity="0.32"/>
<path d="M1021.64 373.58C1021.31 379.03 1010.41 386.04 1003.9 388.98C997.38 391.91 989 392.36 982.55 391.19C976.1 390.01 968.6 386.42 965.17 381.9C961.75 377.39 959.08 368.39 961.98 364.08C964.89 359.78 975.27 357.37 982.58 356.08C989.89 354.78 999.36 353.38 1005.87 356.29C1012.38 359.21 1021.97 368.13 1021.64 373.58Z" fill="{{green_deep}}" opacity="0.32"/>
<path d="M1061.53 362.5C1062.04 367.55 1054.59 376.64 1048.62 379.03C1042.66 381.43 1032.47 378.36 1025.72 376.88C1018.97 375.41 1010.85 373.77 1008.14 370.17C1005.43 366.57 1006.63 359.31 1009.44 355.28C1012.26 351.25 1019.03 347.09 1025.05 346C1031.07 344.91 1039.47 345.98 1045.55 348.73C1051.63 351.48 1061.02 357.45 1061.53 362.5Z" fill="{{green_deep}}" opacity="0.32"/>
<rect x="-16" y="470" width="1056" height="178" fill="url(#meadow-scene-far-g2)"/>
</svg>
