<svg viewBox="0 0 1024 640" xmlns="http://www.w3.org/2000/svg">
<defs><linearGradient x1="0" y1="180" x2="0" y2="640" gradientUnits="userSpaceOnUse" id="meadow-scene-mid-g0"><stop offset="0" stop-color="{{green_mid}}"/><stop offset="1" stop-color="{{green_deep}}"/></linearGradient><linearGradient x1="0" y1="246" x2="0" y2="680" gradientUnits="userSpaceOnUse" id="meadow-scene-mid-g1"><stop offset="0" stop-color="{{green_mid}}"/><stop offset="1" stop-color="{{green_deep}}"/></linearGradient><linearGradient x1="0" y1="269.96" x2="0" y2="321.3" gradientUnits="userSpaceOnUse" id="meadow-scene-mid-g2"><stop offset="0" stop-color="{{green_mid}}"/><stop offset="1" stop-color="{{green_deep}}"/></linearGradient><linearGradient x1="0" y1="279.66" x2="0" y2="331.59" gradientUnits="userSpaceOnUse" id="meadow-scene-mid-g3"><stop offset="0" stop-color="{{green_mid}}"/><stop offset="1" stop-color="{{green_deep}}"/></linearGradient><linearGradient x1="0" y1="266.23" x2="0" y2="342.14" gradientUnits="userSpaceOnUse" id="meadow-scene-mid-g4"><stop offset="0" stop-color="{{green_mid}}"/><stop offset="1" stop-color="{{green_deep}}"/></linearGradient><linearGradient x1="0" y1="275.15" x2="0" y2="349.43" gradientUnits="userSpaceOnUse" id="meadow-scene-mid-g5"><stop offset="0" stop-color="{{green_mid}}"/><stop offset="1" stop-color="{{green_deep}}"/></linearGradient><linearGradient x1="0" y1="257.76" x2="0" y2="334.38" gradientUnits="userSpaceOnUse" id="meadow-scene-mid-g6"><stop offset="0" stop-color="{{green_mid}}"/><stop offset="1" stop-color="{{green_deep}}"/></linearGradient><linearGradient x1="0" y1="270.55" x2="0" y2="322.39" gradientUnits="userSpaceOnUse" id="meadow-scene-mid-g7"><stop offset="0" stop-color="{{green_mid}}"/><stop offset="1" stop-color="{{green_deep}}"/></linearGradient><linearGradient x1="0" y1="500" x2="0" y2="640" gradientUnits="userSpaceOnUse" id="meadow-scene-mid-g8"><stop offset="0" stop-color="{{horizon}}" stop-opacity="0"/><stop offset="1" stop-color="{{horizon}}" stop-opacity="0.4"/></linearGradient></defs>
<path d="M-16 298.8C-16 297.14 -38 301.27 -16 288.82C6 276.36 72 226.32 116 224.08C160 221.84 204 274.96 248 275.35C292 275.75 336 226.02 380 226.43C424 226.84 468 278.66 512 277.81C556 276.97 600 218.94 644 221.38C688 223.83 732 290.77 776 292.5C820 294.24 864 233.92 908 231.82C952 229.71 1018 268.72 1040 279.89C1062 291.05 1040 295.65 1040 298.8L1040 648L-16 648Z" fill="url(#meadow-scene-mid-g0)" opacity="0.85"/>
<path d="M-16 394.5C-16 389.63 -45.33 378.31 -16 365.29C13.33 352.27 101.33 313.68 160 316.37C218.67 319.06 277.33 379.65 336 381.41C394.67 383.18 453.33 327.79 512 326.96C570.67 326.13 629.33 381.88 688 376.45C746.67 371.01 805.33 294.45 864 294.33C922.67 294.21 1010.67 359.04 1040 375.74C1069.33 392.43 1040 391.37 1040 394.5L1040 648L-16 648Z" fill="url(#meadow-scene-mid-g1)"/>
<path d="M82.31 301.63C82.31 307.28 80.12 314.45 72.23 318.57C64.34 322.7 47.54 325.8 34.97 326.39C22.41 326.98 6.55 325.02 -3.15 322.12C-12.85 319.23 -17.8 314.01 -23.21 309.04C-28.62 304.07 -38.23 297.49 -35.62 292.3C-33.01 287.11 -19.22 280.19 -7.57 277.88C4.09 275.58 21 277.35 34.3 278.48C47.6 279.62 64.23 280.83 72.23 284.68C80.23 288.54 82.31 295.98 82.31 301.63Z" fill="{{green_deep}}" opacity="0.72"/>
<path d="M91.11 295.63C89.56 301.07 70.83 305.79 60.79 310.28C50.75 314.77 42.09 321.83 30.89 322.59C19.68 323.36 4.74 317.92 -6.45 314.87C-17.64 311.82 -32.35 308.76 -36.25 304.28C-40.14 299.8 -33.53 293.55 -29.82 287.97C-26.12 282.39 -23.83 273.32 -14.01 270.82C-4.19 268.32 15.08 271.83 29.1 272.97C43.12 274.11 59.77 273.88 70.11 277.66C80.45 281.43 92.67 290.19 91.11 295.63Z" fill="url(#meadow-scene-mid-g2)" opacity="0.9"/>
<path d="M24.34 284.85C24.69 287.45 23.58 291.8 19.21 293.18C14.83 294.57 4.34 293.87 -1.91 293.17C-8.16 292.46 -15.11 291.11 -18.29 288.96C-21.48 286.8 -23.42 282.82 -21 280.21C-18.57 277.61 -10.08 273.74 -3.73 273.3C2.62 272.86 12.43 275.65 17.11 277.58C21.79 279.5 23.99 282.25 24.34 284.85Z" fill="{{glow}}" opacity="0.13"/>
<path d="M321.43 311.62C319.83 317.11 313.38 322.78 304.84 326.47C296.3 330.15 282.26 332.96 270.2 333.7C258.14 334.44 244.19 333.11 232.5 330.89C220.81 328.67 203.87 324.82 200.04 320.38C196.22 315.93 204.42 309.11 209.56 304.25C214.69 299.39 220.76 293.64 230.85 291.22C240.95 288.79 256.19 289.32 270.13 289.71C284.06 290.1 305.91 289.91 314.46 293.56C323.01 297.21 323.03 306.14 321.43 311.62Z" fill="{{green_deep}}" opacity="0.72"/>
<path d="M318.2 305.62C315.54 311.19 305.61 314.61 297.38 319.64C289.14 324.67 280.85 334.64 268.79 335.8C256.72 336.97 238.88 329.97 224.97 326.63C211.07 323.29 192.28 321.02 185.36 315.78C178.44 310.54 176.31 300.01 183.44 295.18C190.58 290.36 214.4 289.04 228.16 286.81C241.91 284.58 251.77 281.89 265.97 281.79C280.18 281.7 304.67 282.28 313.38 286.25C322.08 290.22 320.87 300.06 318.2 305.62Z" fill="url(#meadow-scene-mid-g3)" opacity="0.9"/>
<path d="M261.69 294.72C261.81 297.4 259.73 301.04 254.5 302.95C249.26 304.87 237.51 306.79 230.26 306.21C223.01 305.64 213.74 302.13 210.99 299.5C208.25 296.87 210.42 292.92 213.78 290.44C217.13 287.96 224.44 285.23 231.1 284.62C237.77 284.02 248.66 285.14 253.76 286.83C258.86 288.51 261.57 292.03 261.69 294.72Z" fill="{{glow}}" opacity="0.13"/>
<path d="M470.86 310.19C471.16 318.43 460.31 329.91 450.16 335.37C440.01 340.82 423 342.19 409.96 342.94C396.92 343.69 383.42 343.17 371.94 339.88C360.45 336.59 347.79 330.67 341.05 323.2C334.31 315.74 326.75 302.62 331.48 295.08C336.22 287.53 355.92 282.49 369.47 277.93C383.03 273.36 399.67 266.35 412.82 267.68C425.97 269.01 438.7 278.83 448.38 285.92C458.05 293 470.57 301.95 470.86 310.19Z" fill="{{green_deep}}" opacity="0.72"/>
<path d="M457.26 304.19C460.06 312.25 459.76 325.25 451.6 332.62C443.45 340 422.8 347.85 408.33 348.44C393.85 349.03 376.45 341.43 364.77 336.15C353.09 330.86 344.81 324.61 338.24 316.72C331.67 308.84 320.35 295.65 325.34 288.82C330.32 281.99 354.82 278.79 368.13 275.74C381.44 272.7 394.1 269.15 405.22 270.57C416.33 271.98 426.15 278.64 434.83 284.24C443.5 289.84 454.47 296.13 457.26 304.19Z" fill="url(#meadow-scene-mid-g4)" opacity="0.9"/>
<path d="M406.34 288.25C406.39 292.19 400.07 297.77 394.34 300.19C388.61 302.61 378.6 303.68 371.98 302.75C365.36 301.83 358.35 298.34 354.64 294.64C350.93 290.93 346.75 283.77 349.73 280.5C352.7 277.24 365.11 275.7 372.49 275.04C379.88 274.37 388.39 274.32 394.04 276.52C399.68 278.73 406.29 284.3 406.34 288.25Z" fill="{{glow}}" opacity="0.13"/>
<path d="M644.2 318.29C643.74 326.95 640.98 338.02 634.93 343.23C628.87 348.43 616.98 348.14 607.9 349.5C598.82 350.86 587.09 354.75 580.43 351.39C573.77 348.02 571.85 337.27 567.94 329.32C564.03 321.37 554.33 310.15 556.98 303.68C559.64 297.22 575.35 293.45 583.87 290.52C592.39 287.59 599.11 285.98 608.09 286.11C617.06 286.23 631.7 285.88 637.72 291.25C643.74 296.61 644.67 309.62 644.2 318.29Z" fill="{{green_deep}}" opacity="0.72"/>
<path d="M641.59 312.29C641.22 320.64 635.28 330.61 628.97 336.51C622.65 342.4 613.06 345.49 603.71 347.63C594.36 349.78 580.08 353.3 572.85 349.39C565.63 345.47 562.65 332.4 560.35 324.16C558.04 315.93 556.73 307.82 559.02 299.98C561.32 292.14 566.8 280.22 574.1 277.13C581.41 274.04 593.32 279.88 602.83 281.42C612.34 282.97 624.72 281.26 631.18 286.41C637.64 291.55 641.96 303.94 641.59 312.29Z" fill="url(#meadow-scene-mid-g5)" opacity="0.9"/>
<path d="M600.87 296.69C600.5 300.74 598.73 304.83 595.37 307.62C592 310.41 585.39 314.03 580.67 313.45C575.95 312.87 568.51 307.83 567.04 304.13C565.58 300.43 569.51 294.93 571.87 291.23C574.23 287.53 576.91 283.23 581.2 281.92C585.49 280.6 594.35 280.88 597.63 283.34C600.9 285.8 601.25 292.64 600.87 296.69Z" fill="{{glow}}" opacity="0.13"/>
<path d="M824.53 302.07C824.35 311.5 822.75 324.31 815.52 330C808.3 335.68 792.84 334.41 781.18 336.19C769.52 337.96 753.5 344.41 745.55 340.66C737.6 336.9 736.52 322.31 733.5 313.66C730.49 305 724.71 296.05 727.48 288.73C730.25 281.42 740.8 274.87 750.12 269.75C759.43 264.64 772.3 257.44 783.38 258.05C794.46 258.66 809.73 266.08 816.59 273.42C823.45 280.76 824.71 292.64 824.53 302.07Z" fill="{{green_deep}}" opacity="0.72"/>
<path d="M820.54 296.07C820.6 305.07 816.68 317.35 809.33 323.2C801.97 329.06 787.14 330.27 776.4 331.18C765.66 332.09 752.85 332.61 744.9 328.68C736.94 324.75 732.56 315.31 728.68 307.61C724.8 299.91 719.35 290.47 721.59 282.48C723.83 274.48 732.78 264.26 742.14 259.66C751.5 255.05 766.62 253.27 777.76 254.85C788.89 256.44 801.83 262.3 808.96 269.17C816.09 276.04 820.48 287.06 820.54 296.07Z" fill="url(#meadow-scene-mid-g6)" opacity="0.9"/>
<path d="M775.45 279.98C775.43 283.4 769.94 288.06 765.9 290.22C761.85 292.37 756.05 293.5 751.2 292.91C746.34 292.31 738.85 289.8 736.78 286.65C734.7 283.5 736.3 277.13 738.75 274.02C741.2 270.91 746.95 268.72 751.48 267.99C756.02 267.27 761.97 267.67 765.96 269.67C769.96 271.67 775.46 276.55 775.45 279.98Z" fill="{{glow}}" opacity="0.13"/>
<path d="M1045.73 302.47C1045.7 308.15 1044.12 315.22 1038.01 319.48C1031.91 323.74 1019.72 326.7 1009.1 328.04C998.48 329.39 982.66 330.42 974.27 327.55C965.88 324.68 961.63 316.45 958.73 310.82C955.84 305.19 954.17 299.2 956.9 293.76C959.62 288.31 966.22 281.5 975.09 278.17C983.96 274.84 999.6 272.56 1010.12 273.76C1020.63 274.97 1032.23 280.61 1038.17 285.39C1044.11 290.18 1045.75 296.79 1045.73 302.47Z" fill="{{green_deep}}" opacity="0.72"/>
<path d="M1046.06 296.47C1045.87 302.59 1042.14 309.67 1035.35 314.55C1028.56 319.43 1016.16 324.72 1005.3 325.75C994.44 326.77 978.01 324.33 970.17 320.7C962.32 317.06 960.87 309.35 958.22 303.93C955.57 298.52 952.12 293.36 954.27 288.23C956.42 283.1 962.71 276.4 971.13 273.15C979.55 269.91 993.9 267.97 1004.8 268.75C1015.69 269.54 1029.63 273.25 1036.51 277.87C1043.39 282.49 1046.25 290.36 1046.06 296.47Z" fill="url(#meadow-scene-mid-g7)" opacity="0.9"/>
<path d="M1001.93 285.58C1001.46 288.35 997.77 291.39 993.84 292.96C989.91 294.53 982.92 295.57 978.37 295.01C973.82 294.44 968.87 291.91 966.53 289.58C964.19 287.25 962.52 283.64 964.34 281.04C966.15 278.44 972.01 274.74 977.4 273.96C982.79 273.18 992.57 274.44 996.66 276.38C1000.75 278.31 1002.4 282.82 1001.93 285.58Z" fill="{{glow}}" opacity="0.13"/>
<circle cx="491.31" cy="396.12" r="2.58" fill="{{accent_cool}}" opacity="0.43"/>
<circle cx="455.67" cy="427.48" r="2.88" fill="{{accent_warm}}" opacity="0.47"/>
<circle cx="434.63" cy="423.23" r="2.14" fill="{{accent_cool}}" opacity="0.44"/>
<circle cx="549.4" cy="418.31" r="2.52" fill="{{glow}}" opacity="0.52"/>
<circle cx="512.05" cy="403.75" r="3.49" fill="{{glow}}" opacity="0.55"/>
<circle cx="424.32" cy="398.65" r="3.66" fill="{{accent_cool}}" opacity="0.54"/>
<circle cx="482.84" cy="390.29" r="3.08" fill="{{accent_warm}}" opacity="0.46"/>
<circle cx="606.25" cy="396.49" r="3.93" fill="{{glow}}" opacity="0.46"/>
<circle cx="600.13" cy="407.64" r="1.84" fill="{{accent_warm}}" opacity="0.39"/>
<circle cx="597.72" cy="427.72" r="2.83" fill="{{accent_cool}}" opacity="0.5"/>
<circle cx="463.18" cy="401.04" r="3.32" fill="{{glow}}" opacity="0.49"/>
<circle cx="553.95" cy="418.04" r="1.68" fill="{{accent_warm}}" opacity="0.49"/>
<circle cx="719.89" cy="470.92" r="2.45" fill="{{glow}}" opacity="0.45"/>
<circle cx="724.87" cy="503.19" r="2.16" fill="{{accent_cool}}" opacity="0.48"/>
<circle cx="711.83" cy="510.88" r="2.83" fill="{{glow}}" opacity="0.51"/>
<circle cx="773.79" cy="486.44" r="3.81" fill="{{glow}}" opacity="0.48"/>
<circle cx="738.14" cy="514.67" r="3.28" fill="{{accent_warm}}" opacity="0.46"/>
<circle cx="706.91" cy="516.44" r="3.28" fill="{{accent_warm}}" opacity="0.41"/>
<circle cx="749.81" cy="477.07" r="3.39" fill="{{accent_warm}}" opacity="0.55"/>
<circle cx="679.56" cy="483.04" r="3.43" fill="{{glow}}" opacity="0.47"/>
<circle cx="804.86" cy="494.99" r="3.12" fill="{{accent_cool}}" opacity="0.52"/>
<circle cx="652.99" cy="482.64" r="3.5" fill="{{glow}}" opacity="0.47"/>
<circle cx="514.53" cy="409.96" r="3" fill="{{accent_cool}}" opacity="0.41"/>
<circle cx="549.92" cy="441.56" r="1.68" fill="{{glow}}" opacity="0.53"/>
<circle cx="404.37" cy="435.94" r="3.57" fill="{{accent_warm}}" opacity="0.5"/>
<circle cx="375.56" cy="443.44" r="1.85" fill="{{accent_cool}}" opacity="0.46"/>
<circle cx="486.25" cy="440.07" r="2.35" fill="{{accent_cool}}" opacity="0.49"/>
<circle cx="429.96" cy="429.99" r="2.47" fill="{{glow}}" opacity="0.49"/>
<circle cx="418.1" cy="419.52" r="3.07" fill="{{glow}}" opacity="0.52"/>
<circle cx="432.59" cy="440.4" r="3.66" fill="{{accent_warm}}" opacity="0.52"/>
<circle cx="349.43" cy="427.42" r="3.29" fill="{{glow}}" opacity="0.45"/>
<circle cx="371.32" cy="438.48" r="3.31" fill="{{accent_warm}}" opacity="0.44"/>
<circle cx="352.86" cy="420.44" r="2.23" fill="{{accent_warm}}" opacity="0.41"/>
<circle cx="390.93" cy="439.99" r="2.48" fill="{{accent_warm}}" opacity="0.43"/>
<circle cx="546.36" cy="438.25" r="3.98" fill="{{accent_warm}}" opacity="0.43"/>
<circle cx="364" cy="401.78" r="3.78" fill="{{accent_cool}}" opacity="0.51"/>
<circle cx="560.22" cy="406.82" r="1.96" fill="{{accent_warm}}" opacity="0.39"/>
<circle cx="463.12" cy="431.76" r="3.32" fill="{{accent_cool}}" opacity="0.46"/>
<circle cx="450.9" cy="416.42" r="3.5" fill="{{glow}}" opacity="0.46"/>
<circle cx="210.96" cy="453.43" r="1.72" fill="{{accent_cool}}" opacity="0.42"/>
<circle cx="198.57" cy="420.63" r="2.56" fill="{{accent_cool}}" opacity="0.54"/>
<circle cx="294.78" cy="417.75" r="2.94" fill="{{accent_warm}}" opacity="0.49"/>
<circle cx="258.98" cy="442.38" r="3.08" fill="{{glow}}" opacity="0.48"/>
<circle cx="192.32" cy="437.58" r="1.9" fill="{{accent_cool}}" opacity="0.4"/>
<circle cx="219.7" cy="452.31" r="1.69" fill="{{accent_warm}}" opacity="0.47"/>
<circle cx="379.05" cy="440.54" r="1.88" fill="{{accent_warm}}" opacity="0.48"/>
<circle cx="227.07" cy="453.35" r="2.4" fill="{{glow}}" opacity="0.51"/>
<circle cx="384.7" cy="407.37" r="1.73" fill="{{accent_cool}}" opacity="0.49"/>
<circle cx="237.52" cy="402.77" r="1.73" fill="{{accent_warm}}" opacity="0.41"/>
<circle cx="339.43" cy="415.67" r="2.65" fill="{{accent_warm}}" opacity="0.48"/>
<circle cx="207.59" cy="431.07" r="3.96" fill="{{glow}}" opacity="0.42"/>
<circle cx="353.22" cy="431.52" r="3.96" fill="{{glow}}" opacity="0.53"/>
<circle cx="298.06" cy="435.17" r="3.82" fill="{{glow}}" opacity="0.39"/>
<rect x="-16" y="500" width="1056" height="148" fill="url(#meadow-scene-mid-g8)"/>
</svg>
